# xmcd
#
# Track frame offsets: 
#        150
#        13873
#        27866
#        40458
#        52782
#        65106
#        75637
#        92259
#        109256
#        122624
#        141378
#        153083
#        166018
#        180160
#        198232
#        214925
#        224130
#        237837
#        253029
#        273934
#
# Disc length: 3983 seconds
#
# Revision: 0
# Processed by: cddbd v1.4PL0 Copyright (c) Steve Scherf et al.
# Submitted via: ExactAudioCopy v0.90b4
#
DISCID=110f8d14
DTITLE=Johnny Cash  - Man In Black - The Very Best Of - Disc 2
DYEAR=1900
DGENRE=
TTITLE0=It Ain't Me, Babe (with June C
TTITLE1=Orange Blossom Special (with C
TTITLE2=The One On The Right Is On The
TTITLE3=Jackson (with June Carter Cash
TTITLE4=Folsom Prison Blues (Live)
TTITLE5=Daddy Sang Bass
TTITLE6=Girl From The North Country (w
TTITLE7=A Boy Named Sue (Live)
TTITLE8=If I Were A Carpenter (with Ju
TTITLE9=Sunday Morning Coming Down
TTITLE10=Flesh And Blood
TTITLE11=Man In Black
TTITLE12=Ragged Old Flag
TTITLE13=One Piece At A Time
TTITLE14=(Ghost) Riders In The Sky
TTITLE15=Song Of The Patriot (with Mart
TTITLE16=Highwayman (with Willie Nelson
TTITLE17=The Night Hank Williams Came T
TTITLE18=The Wanderer (with U2)
TTITLE19=Man In White
EXTD=
EXTT0=
EXTT1=
EXTT2=
EXTT3=
EXTT4=
EXTT5=
EXTT6=
EXTT7=
EXTT8=
EXTT9=
EXTT10=
EXTT11=
EXTT12=
EXTT13=
EXTT14=
EXTT15=
EXTT16=
EXTT17=
EXTT18=
EXTT19=
PLAYORDER=
